<svg width="28" height="24" viewBox="0 0 28 24" fill="none" xmlns="http://www.w3.org/2000/svg">
<path d="M8.66797 16H19.3346V15.2667C19.3346 14.2667 18.8457 13.4722 17.868 12.8833C16.8902 12.2944 15.6013 12 14.0013 12C12.4013 12 11.1124 12.2944 10.1346 12.8833C9.15686 13.4722 8.66797 14.2667 8.66797 15.2667V16ZM14.0013 10.6667C14.7346 10.6667 15.3624 10.4056 15.8846 9.88333C16.4069 9.36111 16.668 8.73333 16.668 8C16.668 7.26667 16.4069 6.63889 15.8846 6.11667C15.3624 5.59444 14.7346 5.33333 14.0013 5.33333C13.268 5.33333 12.6402 5.59444 12.118 6.11667C11.5957 6.63889 11.3346 7.26667 11.3346 8C11.3346 8.73333 11.5957 9.36111 12.118 9.88333C12.6402 10.4056 13.268 10.6667 14.0013 10.6667ZM8.66797 24V21.3333H3.33464C2.6013 21.3333 1.97352 21.0722 1.4513 20.55C0.92908 20.0278 0.667969 19.4 0.667969 18.6667V2.66667C0.667969 1.93333 0.92908 1.30556 1.4513 0.783333C1.97352 0.261111 2.6013 0 3.33464 0H24.668C25.4013 0 26.0291 0.261111 26.5513 0.783333C27.0735 1.30556 27.3346 1.93333 27.3346 2.66667V18.6667C27.3346 19.4 27.0735 20.0278 26.5513 20.55C26.0291 21.0722 25.4013 21.3333 24.668 21.3333H19.3346V24H8.66797ZM3.33464 18.6667H24.668V2.66667H3.33464V18.6667Z" fill="#FDA610"/>
</svg>
